solid Exported from Blender-3.2.2
facet normal 0.096930 0.779318 0.619086
outer loop
vertex 0.631806 0.765024 2.937753
vertex 1.122211 0.013061 3.807556
vertex 1.570495 0.099039 3.629138
endloop
endfacet
facet normal 0.096930 0.779318 0.619086
outer loop
vertex 0.631806 0.765024 2.937753
vertex 1.570495 0.099039 3.629138
vertex 1.080091 0.851001 2.759335
endloop
endfacet
facet normal 0.273518 0.798569 0.536167
outer loop
vertex 1.080091 0.851001 2.759335
vertex 1.570495 0.099039 3.629138
vertex 2.000898 0.108853 3.394956
endloop
endfacet
facet normal 0.273518 0.798569 0.536167
outer loop
vertex 1.080091 0.851001 2.759335
vertex 2.000898 0.108853 3.394956
vertex 1.510494 0.860816 2.525153
endloop
endfacet
facet normal 0.439594 0.787132 0.432643
outer loop
vertex 1.510494 0.860816 2.525153
vertex 2.000898 0.108853 3.394956
vertex 2.396880 0.042127 3.114011
endloop
endfacet
facet normal 0.439594 0.787132 0.432644
outer loop
vertex 1.510494 0.860816 2.525153
vertex 2.396880 0.042127 3.114011
vertex 1.906475 0.794089 2.244209
endloop
endfacet
facet normal 0.588777 0.745446 0.312493
outer loop
vertex 1.906475 0.794089 2.244209
vertex 2.396880 0.042127 3.114011
vertex 2.743223 -0.098575 2.797099
endloop
endfacet
facet normal 0.588779 0.745445 0.312493
outer loop
vertex 1.906475 0.794089 2.244209
vertex 2.743223 -0.098575 2.797099
vertex 2.252818 0.653387 1.927296
endloop
endfacet
facet normal 0.715335 0.675112 0.180334
outer loop
vertex 2.252818 0.653387 1.927296
vertex 2.743223 -0.098575 2.797099
vertex 3.026617 -0.307847 2.456398
endloop
endfacet
facet normal 0.715334 0.675112 0.180334
outer loop
vertex 2.252818 0.653387 1.927296
vertex 3.026617 -0.307847 2.456398
vertex 2.536212 0.444115 1.586596
endloop
endfacet
facet normal 0.814402 0.578834 0.041245
outer loop
vertex 2.536212 0.444115 1.586596
vertex 3.026617 -0.307847 2.456398
vertex 3.236172 -0.577646 2.105002
endloop
endfacet
facet normal 0.814402 0.578834 0.041245
outer loop
vertex 2.536212 0.444115 1.586596
vertex 3.236172 -0.577646 2.105002
vertex 2.745768 0.174316 1.235199
endloop
endfacet
facet normal 0.882172 0.460312 -0.099429
outer loop
vertex 2.745768 0.174316 1.235199
vertex 3.236172 -0.577646 2.105002
vertex 3.363835 -0.897603 1.756414
endloop
endfacet
facet normal 0.882172 0.460312 -0.099429
outer loop
vertex 2.745768 0.174316 1.235199
vertex 3.363835 -0.897603 1.756414
vertex 2.873431 -0.145641 0.886612
endloop
endfacet
facet normal 0.916040 0.324100 -0.236283
outer loop
vertex 2.873431 -0.145641 0.886612
vertex 3.363835 -0.897603 1.756414
vertex 3.404700 -1.255424 1.424031
endloop
endfacet
facet normal 0.916040 0.324101 -0.236282
outer loop
vertex 2.873431 -0.145641 0.886612
vertex 3.404700 -1.255424 1.424031
vertex 2.914295 -0.503462 0.554229
endloop
endfacet
facet normal 0.914706 0.175434 -0.364055
outer loop
vertex 2.914295 -0.503462 0.554229
vertex 3.404700 -1.255424 1.424031
vertex 3.357196 -1.637357 1.120626
endloop
endfacet
facet normal 0.914706 0.175435 -0.364055
outer loop
vertex 2.914295 -0.503462 0.554229
vertex 3.357196 -1.637357 1.120626
vertex 2.866791 -0.885395 0.250824
endloop
endfacet
facet normal 0.878220 0.020025 -0.477838
outer loop
vertex 2.866791 -0.885395 0.250824
vertex 3.357196 -1.637357 1.120626
vertex 3.223149 -2.028724 0.857858
endloop
endfacet
facet normal 0.878220 0.020024 -0.477837
outer loop
vertex 2.866791 -0.885395 0.250824
vertex 3.223149 -2.028724 0.857858
vertex 2.732744 -1.276762 -0.011944
endloop
endfacet
facet normal 0.807985 -0.136151 -0.573257
outer loop
vertex 2.732744 -1.276762 -0.011944
vertex 3.223149 -2.028724 0.857858
vertex 3.007710 -2.414486 0.645826
endloop
endfacet
facet normal 0.804576 -0.139301 -0.577280
outer loop
vertex 2.732744 -1.276762 -0.011944
vertex 3.007710 -2.414486 0.645826
vertex 2.511482 -1.624381 -0.236442
endloop
endfacet
facet normal 0.704547 -0.283812 -0.650433
outer loop
vertex 2.511482 -1.624381 -0.236442
vertex 3.007710 -2.414486 0.645826
vertex 2.719158 -2.779818 0.492678
endloop
endfacet
facet normal 0.673528 -0.304080 -0.673718
outer loop
vertex 2.511482 -1.624381 -0.236442
vertex 2.719158 -2.779818 0.492678
vertex 2.201577 -1.900914 -0.421448
endloop
endfacet
facet normal 0.566807 -0.409644 -0.714788
outer loop
vertex 2.201577 -1.900914 -0.421448
vertex 2.719158 -2.779818 0.492678
vertex 2.368583 -3.110681 0.404298
endloop
endfacet
facet normal 0.488323 -0.444982 -0.750688
outer loop
vertex 2.201577 -1.900914 -0.421448
vertex 2.368583 -3.110681 0.404298
vertex 1.772643 -2.126069 -0.567006
endloop
endfacet
facet normal 0.333006 -0.552337 -0.764219
outer loop
vertex 1.772643 -2.126069 -0.567006
vertex 2.368583 -3.110681 0.404298
vertex 1.906591 -3.308787 0.346167
endloop
endfacet
facet normal 0.450863 -0.512944 -0.730487
outer loop
vertex 1.772643 -2.126069 -0.567006
vertex 1.906591 -3.308787 0.346167
vertex 1.398223 -2.440529 -0.577289
endloop
endfacet
facet normal 0.141542 -0.681138 -0.718343
outer loop
vertex 1.398223 -2.440529 -0.577289
vertex 1.906591 -3.308787 0.346167
vertex 1.170267 -3.536104 0.416627
endloop
endfacet
facet normal 0.220709 -0.680132 -0.699077
outer loop
vertex 1.398223 -2.440529 -0.577289
vertex 1.170267 -3.536104 0.416627
vertex 0.794827 -2.738152 -0.478234
endloop
endfacet
facet normal 0.081185 -0.726739 -0.682099
outer loop
vertex 0.794827 -2.738152 -0.478234
vertex 1.170267 -3.536104 0.416627
vertex 0.721329 -3.694942 0.532425
endloop
endfacet
facet normal 0.093779 -0.726391 -0.680854
outer loop
vertex 0.794827 -2.738152 -0.478234
vertex 0.721329 -3.694942 0.532425
vertex 0.230924 -2.942979 -0.337377
endloop
endfacet
facet normal 0.083383 -0.730118 -0.678214
outer loop
vertex -0.617828 -0.810714 -3.062835
vertex -0.127424 -1.562676 -2.193032
vertex -0.576362 -1.721513 -2.077233
endloop
endfacet
facet normal 0.083383 -0.730118 -0.678214
outer loop
vertex -0.617828 -0.810714 -3.062835
vertex -0.576362 -1.721513 -2.077233
vertex -1.066766 -0.969551 -2.947036
endloop
endfacet
facet normal 0.096931 0.779318 0.619086
outer loop
vertex -0.349002 2.268948 1.198148
vertex 0.141402 1.516985 2.067951
vertex 0.589686 1.602963 1.889532
endloop
endfacet
facet normal 0.096930 0.779318 0.619086
outer loop
vertex -0.349002 2.268948 1.198148
vertex 0.589686 1.602963 1.889532
vertex 0.099282 2.354925 1.019730
endloop
endfacet
facet normal 0.439595 0.787132 0.432643
outer loop
vertex 0.529685 2.364740 0.785548
vertex 1.020089 1.612778 1.655351
vertex 1.416071 1.546051 1.374406
endloop
endfacet
facet normal 0.439595 0.787132 0.432643
outer loop
vertex 0.529685 2.364740 0.785548
vertex 1.416071 1.546051 1.374406
vertex 0.925666 2.298013 0.504603
endloop
endfacet
facet normal 0.588778 0.745445 0.312493
outer loop
vertex 0.925666 2.298013 0.504603
vertex 1.416071 1.546051 1.374406
vertex 1.762414 1.405349 1.057494
endloop
endfacet
facet normal 0.588778 0.745446 0.312493
outer loop
vertex 0.925666 2.298013 0.504603
vertex 1.762414 1.405349 1.057494
vertex 1.272009 2.157311 0.187691
endloop
endfacet
facet normal 0.715335 0.675112 0.180335
outer loop
vertex 1.272009 2.157311 0.187691
vertex 1.762414 1.405349 1.057494
vertex 2.045808 1.196077 0.716793
endloop
endfacet
facet normal 0.715335 0.675112 0.180334
outer loop
vertex 1.272009 2.157311 0.187691
vertex 2.045808 1.196077 0.716793
vertex 1.555404 1.948039 -0.153010
endloop
endfacet
facet normal 0.814402 0.578834 0.041245
outer loop
vertex 1.555404 1.948039 -0.153010
vertex 2.045808 1.196077 0.716793
vertex 2.255363 0.926278 0.365397
endloop
endfacet
facet normal 0.814402 0.578834 0.041245
outer loop
vertex 1.555404 1.948039 -0.153010
vertex 2.255363 0.926278 0.365397
vertex 1.764959 1.678240 -0.504406
endloop
endfacet
facet normal 0.882171 0.460312 -0.099429
outer loop
vertex 1.764959 1.678240 -0.504406
vertex 2.255363 0.926278 0.365397
vertex 2.383026 0.606321 0.016809
endloop
endfacet
facet normal 0.882172 0.460312 -0.099429
outer loop
vertex 1.764959 1.678240 -0.504406
vertex 2.383026 0.606321 0.016809
vertex 1.892622 1.358283 -0.852993
endloop
endfacet
facet normal 0.916040 0.324101 -0.236282
outer loop
vertex 1.892622 1.358283 -0.852993
vertex 2.383026 0.606321 0.016809
vertex 2.423891 0.248500 -0.315574
endloop
endfacet
facet normal 0.916040 0.324101 -0.236282
outer loop
vertex 1.892622 1.358283 -0.852993
vertex 2.423891 0.248500 -0.315574
vertex 1.933486 1.000462 -1.185377
endloop
endfacet
facet normal 0.914706 0.175434 -0.364055
outer loop
vertex 1.933486 1.000462 -1.185377
vertex 2.423891 0.248500 -0.315574
vertex 2.376387 -0.133433 -0.618979
endloop
endfacet
facet normal 0.914706 0.175434 -0.364055
outer loop
vertex 1.933486 1.000462 -1.185377
vertex 2.376387 -0.133433 -0.618979
vertex 1.885983 0.618530 -1.488782
endloop
endfacet
facet normal 0.878220 0.020026 -0.477837
outer loop
vertex 1.885983 0.618530 -1.488782
vertex 2.376387 -0.133433 -0.618979
vertex 2.242340 -0.524800 -0.881747
endloop
endfacet
facet normal 0.878220 0.020025 -0.477838
outer loop
vertex 1.885983 0.618530 -1.488782
vertex 2.242340 -0.524800 -0.881747
vertex 1.751935 0.227162 -1.751549
endloop
endfacet
facet normal 0.807984 -0.136152 -0.573257
outer loop
vertex 1.751935 0.227162 -1.751549
vertex 2.242340 -0.524800 -0.881747
vertex 2.026901 -0.910562 -1.093779
endloop
endfacet
facet normal 0.807985 -0.136152 -0.573257
outer loop
vertex 1.751935 0.227162 -1.751549
vertex 2.026901 -0.910562 -1.093779
vertex 1.536496 -0.158600 -1.963582
endloop
endfacet
facet normal 0.706698 -0.287098 -0.646647
outer loop
vertex 1.536496 -0.158600 -1.963582
vertex 2.026901 -0.910562 -1.093779
vertex 1.738349 -1.275894 -1.246927
endloop
endfacet
facet normal 0.706698 -0.287098 -0.646647
outer loop
vertex 1.536496 -0.158600 -1.963582
vertex 1.738349 -1.275894 -1.246927
vertex 1.247945 -0.523932 -2.116730
endloop
endfacet
facet normal 0.578255 -0.427010 -0.695186
outer loop
vertex 1.247945 -0.523932 -2.116730
vertex 1.738349 -1.275894 -1.246927
vertex 1.387774 -1.606757 -1.335307
endloop
endfacet
facet normal 0.528385 -0.450904 -0.719371
outer loop
vertex 1.247945 -0.523932 -2.116730
vertex 1.387774 -1.606757 -1.335307
vertex 0.780631 -0.868917 -2.243739
endloop
endfacet
facet normal 0.423251 -0.543869 -0.724613
outer loop
vertex 0.780631 -0.868917 -2.243739
vertex 1.387774 -1.606757 -1.335307
vertex 0.988647 -1.890435 -1.355520
endloop
endfacet
facet normal 0.518564 -0.498462 -0.694714
outer loop
vertex 0.780631 -0.868917 -2.243739
vertex 0.988647 -1.890435 -1.355520
vertex 0.469557 -1.243295 -2.207319
endloop
endfacet
facet normal 0.273518 0.798569 0.536167
outer loop
vertex 0.099282 2.354925 1.019730
vertex 0.589686 1.602963 1.889532
vertex 1.020089 1.612778 1.655351
endloop
endfacet
facet normal 0.273517 0.798570 0.536167
outer loop
vertex 0.099282 2.354925 1.019730
vertex 1.020089 1.612778 1.655351
vertex 0.529685 2.364740 0.785548
endloop
endfacet
facet normal 0.276198 -0.676735 -0.682454
outer loop
vertex 0.469557 -1.243295 -2.207319
vertex 0.988647 -1.890435 -1.355520
vertex 0.556308 -2.116028 -1.306792
endloop
endfacet
facet normal 0.336861 -0.659707 -0.671797
outer loop
vertex 0.469557 -1.243295 -2.207319
vertex 0.556308 -2.116028 -1.306792
vertex -0.127424 -1.562676 -2.193032
endloop
endfacet
facet normal 0.166484 -0.773574 -0.611447
outer loop
vertex -0.127424 -1.562676 -2.193032
vertex 0.556308 -2.116028 -1.306792
vertex -0.159982 -2.343220 -1.214389
endloop
endfacet
facet normal 0.116260 -0.778372 -0.616945
outer loop
vertex -0.127424 -1.562676 -2.193032
vertex -0.159982 -2.343220 -1.214389
vertex -0.576362 -1.721513 -2.077233
endloop
endfacet
facet normal 0.304137 -0.601534 -0.738686
outer loop
vertex 0.007839 -0.386511 -3.095126
vertex 0.469557 -1.243295 -2.207319
vertex -0.127424 -1.562676 -2.193032
endloop
endfacet
facet normal 0.364791 -0.592701 -0.718076
outer loop
vertex 0.007839 -0.386511 -3.095126
vertex -0.127424 -1.562676 -2.193032
vertex -0.617828 -0.810714 -3.062835
endloop
endfacet
facet normal 0.273518 0.798569 0.536167
outer loop
vertex -0.391123 3.106888 0.149927
vertex 0.099282 2.354925 1.019730
vertex 0.529685 2.364740 0.785548
endloop
endfacet
facet normal 0.273518 0.798569 0.536167
outer loop
vertex -0.391123 3.106888 0.149927
vertex 0.529685 2.364740 0.785548
vertex 0.039281 3.116702 -0.084254
endloop
endfacet
facet normal 0.519477 -0.499110 -0.693565
outer loop
vertex 0.406965 -0.102833 -3.074912
vertex 0.780631 -0.868917 -2.243739
vertex 0.469557 -1.243295 -2.207319
endloop
endfacet
facet normal 0.417752 -0.535460 -0.734007
outer loop
vertex 0.406965 -0.102833 -3.074912
vertex 0.469557 -1.243295 -2.207319
vertex 0.007839 -0.386511 -3.095126
endloop
endfacet
facet normal 0.535368 -0.465817 -0.704554
outer loop
vertex 0.757540 0.228030 -2.986533
vertex 1.247945 -0.523932 -2.116730
vertex 0.780631 -0.868917 -2.243739
endloop
endfacet
facet normal 0.589457 -0.444384 -0.674584
outer loop
vertex 0.757540 0.228030 -2.986533
vertex 0.780631 -0.868917 -2.243739
vertex 0.406965 -0.102833 -3.074912
endloop
endfacet
facet normal 0.706698 -0.287098 -0.646647
outer loop
vertex 1.046092 0.593362 -2.833384
vertex 1.536496 -0.158600 -1.963582
vertex 1.247945 -0.523932 -2.116730
endloop
endfacet
facet normal 0.706699 -0.287098 -0.646646
outer loop
vertex 1.046092 0.593362 -2.833384
vertex 1.247945 -0.523932 -2.116730
vertex 0.757540 0.228030 -2.986533
endloop
endfacet
facet normal 0.807984 -0.136152 -0.573257
outer loop
vertex 1.261531 0.979124 -2.621352
vertex 1.751935 0.227162 -1.751549
vertex 1.536496 -0.158600 -1.963582
endloop
endfacet
facet normal 0.807985 -0.136152 -0.573257
outer loop
vertex 1.261531 0.979124 -2.621352
vertex 1.536496 -0.158600 -1.963582
vertex 1.046092 0.593362 -2.833384
endloop
endfacet
facet normal 0.878220 0.020026 -0.477838
outer loop
vertex 1.395578 1.370491 -2.358584
vertex 1.885983 0.618530 -1.488782
vertex 1.751935 0.227162 -1.751549
endloop
endfacet
facet normal 0.878220 0.020026 -0.477837
outer loop
vertex 1.395578 1.370491 -2.358584
vertex 1.751935 0.227162 -1.751549
vertex 1.261531 0.979124 -2.621352
endloop
endfacet
facet normal 0.914706 0.175434 -0.364055
outer loop
vertex 1.443082 1.752424 -2.055179
vertex 1.933486 1.000462 -1.185377
vertex 1.885983 0.618530 -1.488782
endloop
endfacet
facet normal 0.914706 0.175434 -0.364055
outer loop
vertex 1.443082 1.752424 -2.055179
vertex 1.885983 0.618530 -1.488782
vertex 1.395578 1.370491 -2.358584
endloop
endfacet
facet normal 0.916040 0.324100 -0.236282
outer loop
vertex 1.402218 2.110245 -1.722795
vertex 1.892622 1.358283 -0.852993
vertex 1.933486 1.000462 -1.185377
endloop
endfacet
facet normal 0.916040 0.324100 -0.236282
outer loop
vertex 1.402218 2.110245 -1.722795
vertex 1.933486 1.000462 -1.185377
vertex 1.443082 1.752424 -2.055179
endloop
endfacet
facet normal 0.882171 0.460312 -0.099429
outer loop
vertex 1.274554 2.430202 -1.374208
vertex 1.764959 1.678240 -0.504406
vertex 1.892622 1.358283 -0.852993
endloop
endfacet
facet normal 0.882171 0.460312 -0.099429
outer loop
vertex 1.274554 2.430202 -1.374208
vertex 1.892622 1.358283 -0.852993
vertex 1.402218 2.110245 -1.722795
endloop
endfacet
facet normal 0.814402 0.578834 0.041245
outer loop
vertex 1.064999 2.700001 -1.022812
vertex 1.555404 1.948039 -0.153010
vertex 1.764959 1.678240 -0.504406
endloop
endfacet
facet normal 0.814402 0.578834 0.041245
outer loop
vertex 1.064999 2.700001 -1.022812
vertex 1.764959 1.678240 -0.504406
vertex 1.274554 2.430202 -1.374208
endloop
endfacet
facet normal 0.715335 0.675112 0.180334
outer loop
vertex 0.781605 2.909273 -0.682112
vertex 1.272009 2.157311 0.187691
vertex 1.555404 1.948039 -0.153010
endloop
endfacet
facet normal 0.715335 0.675112 0.180334
outer loop
vertex 0.781605 2.909273 -0.682112
vertex 1.555404 1.948039 -0.153010
vertex 1.064999 2.700001 -1.022812
endloop
endfacet
facet normal 0.588778 0.745445 0.312494
outer loop
vertex 0.435262 3.049976 -0.365199
vertex 0.925666 2.298013 0.504603
vertex 1.272009 2.157311 0.187691
endloop
endfacet
facet normal 0.588778 0.745445 0.312493
outer loop
vertex 0.435262 3.049976 -0.365199
vertex 1.272009 2.157311 0.187691
vertex 0.781605 2.909273 -0.682112
endloop
endfacet
facet normal 0.439595 0.787131 0.432644
outer loop
vertex 0.039281 3.116702 -0.084254
vertex 0.529685 2.364740 0.785548
vertex 0.925666 2.298013 0.504603
endloop
endfacet
facet normal 0.439595 0.787132 0.432643
outer loop
vertex 0.039281 3.116702 -0.084254
vertex 0.925666 2.298013 0.504603
vertex 0.435262 3.049976 -0.365199
endloop
endfacet
facet normal 0.096930 0.779318 0.619086
outer loop
vertex -0.839407 3.020910 0.328345
vertex -0.349002 2.268948 1.198148
vertex 0.099282 2.354925 1.019730
endloop
endfacet
facet normal 0.096930 0.779318 0.619086
outer loop
vertex -0.839407 3.020910 0.328345
vertex 0.099282 2.354925 1.019730
vertex -0.391123 3.106888 0.149927
endloop
endfacet
facet normal 0.127063 -0.775283 -0.618701
outer loop
vertex 0.556308 -2.116028 -1.306792
vertex 0.794827 -2.738152 -0.478234
vertex 0.230924 -2.942979 -0.337377
endloop
endfacet
facet normal 0.168255 -0.777121 -0.606443
outer loop
vertex 0.556308 -2.116028 -1.306792
vertex 0.230924 -2.942979 -0.337377
vertex -0.159982 -2.343220 -1.214389
endloop
endfacet
facet normal 0.251106 -0.723212 -0.643358
outer loop
vertex 0.988647 -1.890435 -1.355520
vertex 1.398223 -2.440529 -0.577289
vertex 0.794827 -2.738152 -0.478234
endloop
endfacet
facet normal 0.303928 -0.717777 -0.626437
outer loop
vertex 0.988647 -1.890435 -1.355520
vertex 0.794827 -2.738152 -0.478234
vertex 0.556308 -2.116028 -1.306792
endloop
endfacet
facet normal 0.503028 -0.577929 -0.642620
outer loop
vertex 1.387774 -1.606757 -1.335307
vertex 1.772643 -2.126069 -0.567006
vertex 1.398223 -2.440529 -0.577289
endloop
endfacet
facet normal 0.456613 -0.595333 -0.661123
outer loop
vertex 1.387774 -1.606757 -1.335307
vertex 1.398223 -2.440529 -0.577289
vertex 0.988647 -1.890435 -1.355520
endloop
endfacet
facet normal 0.507568 -0.525559 -0.682760
outer loop
vertex 1.738349 -1.275894 -1.246927
vertex 2.201577 -1.900914 -0.421448
vertex 1.772643 -2.126069 -0.567006
endloop
endfacet
facet normal 0.611089 -0.479207 -0.630024
outer loop
vertex 1.738349 -1.275894 -1.246927
vertex 1.772643 -2.126069 -0.567006
vertex 1.387774 -1.606757 -1.335307
endloop
endfacet
facet normal 0.681453 -0.324984 -0.655750
outer loop
vertex 2.026901 -0.910562 -1.093779
vertex 2.511482 -1.624381 -0.236442
vertex 2.201577 -1.900914 -0.421448
endloop
endfacet
facet normal 0.715848 -0.301353 -0.629879
outer loop
vertex 2.026901 -0.910562 -1.093779
vertex 2.201577 -1.900914 -0.421448
vertex 1.738349 -1.275894 -1.246927
endloop
endfacet
facet normal 0.805386 -0.140779 -0.575791
outer loop
vertex 2.242340 -0.524800 -0.881747
vertex 2.732744 -1.276762 -0.011944
vertex 2.511482 -1.624381 -0.236442
endloop
endfacet
facet normal 0.808870 -0.137513 -0.571681
outer loop
vertex 2.242340 -0.524800 -0.881747
vertex 2.511482 -1.624381 -0.236442
vertex 2.026901 -0.910562 -1.093779
endloop
endfacet
facet normal 0.878220 0.020025 -0.477837
outer loop
vertex 2.376387 -0.133433 -0.618979
vertex 2.866791 -0.885395 0.250824
vertex 2.732744 -1.276762 -0.011944
endloop
endfacet
facet normal 0.878220 0.020027 -0.477837
outer loop
vertex 2.376387 -0.133433 -0.618979
vertex 2.732744 -1.276762 -0.011944
vertex 2.242340 -0.524800 -0.881747
endloop
endfacet
facet normal 0.914706 0.175434 -0.364055
outer loop
vertex 2.423891 0.248500 -0.315574
vertex 2.914295 -0.503462 0.554229
vertex 2.866791 -0.885395 0.250824
endloop
endfacet
facet normal 0.914706 0.175434 -0.364055
outer loop
vertex 2.423891 0.248500 -0.315574
vertex 2.866791 -0.885395 0.250824
vertex 2.376387 -0.133433 -0.618979
endloop
endfacet
facet normal 0.916040 0.324101 -0.236282
outer loop
vertex 2.383026 0.606321 0.016809
vertex 2.873431 -0.145641 0.886612
vertex 2.914295 -0.503462 0.554229
endloop
endfacet
facet normal 0.916040 0.324101 -0.236282
outer loop
vertex 2.383026 0.606321 0.016809
vertex 2.914295 -0.503462 0.554229
vertex 2.423891 0.248500 -0.315574
endloop
endfacet
facet normal 0.882172 0.460312 -0.099429
outer loop
vertex 2.255363 0.926278 0.365397
vertex 2.745768 0.174316 1.235199
vertex 2.873431 -0.145641 0.886612
endloop
endfacet
facet normal 0.882171 0.460312 -0.099429
outer loop
vertex 2.255363 0.926278 0.365397
vertex 2.873431 -0.145641 0.886612
vertex 2.383026 0.606321 0.016809
endloop
endfacet
facet normal 0.814402 0.578834 0.041245
outer loop
vertex 2.045808 1.196077 0.716793
vertex 2.536212 0.444115 1.586596
vertex 2.745768 0.174316 1.235199
endloop
endfacet
facet normal 0.814402 0.578834 0.041245
outer loop
vertex 2.045808 1.196077 0.716793
vertex 2.745768 0.174316 1.235199
vertex 2.255363 0.926278 0.365397
endloop
endfacet
facet normal 0.715335 0.675111 0.180334
outer loop
vertex 1.762414 1.405349 1.057494
vertex 2.252818 0.653387 1.927296
vertex 2.536212 0.444115 1.586596
endloop
endfacet
facet normal 0.715334 0.675112 0.180334
outer loop
vertex 1.762414 1.405349 1.057494
vertex 2.536212 0.444115 1.586596
vertex 2.045808 1.196077 0.716793
endloop
endfacet
facet normal 0.588778 0.745446 0.312493
outer loop
vertex 1.416071 1.546051 1.374406
vertex 1.906475 0.794089 2.244209
vertex 2.252818 0.653387 1.927296
endloop
endfacet
facet normal 0.588778 0.745445 0.312493
outer loop
vertex 1.416071 1.546051 1.374406
vertex 2.252818 0.653387 1.927296
vertex 1.762414 1.405349 1.057494
endloop
endfacet
facet normal 0.439595 0.787132 0.432643
outer loop
vertex 1.020089 1.612778 1.655351
vertex 1.510494 0.860816 2.525153
vertex 1.906475 0.794089 2.244209
endloop
endfacet
facet normal 0.439594 0.787132 0.432643
outer loop
vertex 1.020089 1.612778 1.655351
vertex 1.906475 0.794089 2.244209
vertex 1.416071 1.546051 1.374406
endloop
endfacet
facet normal 0.273518 0.798569 0.536167
outer loop
vertex 0.589686 1.602963 1.889532
vertex 1.080091 0.851001 2.759335
vertex 1.510494 0.860816 2.525153
endloop
endfacet
facet normal 0.273517 0.798569 0.536167
outer loop
vertex 0.589686 1.602963 1.889532
vertex 1.510494 0.860816 2.525153
vertex 1.020089 1.612778 1.655351
endloop
endfacet
facet normal 0.096931 0.779318 0.619086
outer loop
vertex 0.141402 1.516985 2.067951
vertex 0.631806 0.765024 2.937753
vertex 1.080091 0.851001 2.759335
endloop
endfacet
facet normal 0.096930 0.779318 0.619086
outer loop
vertex 0.141402 1.516985 2.067951
vertex 1.080091 0.851001 2.759335
vertex 0.589686 1.602963 1.889532
endloop
endfacet
endsolid Exported from Blender-3.2.2
