solid Exported from Blender-2.92.0
facet normal 0.167806 0.092694 0.981452
outer loop
vertex 0.646333 0.920199 0.141262
vertex 0.907965 0.928493 0.095745
vertex 0.889282 1.170287 0.076103
endloop
endfacet
facet normal 0.035856 0.219202 0.975020
outer loop
vertex 0.646333 0.920199 0.141262
vertex 0.889282 1.170287 0.076103
vertex 0.671358 1.158513 0.086764
endloop
endfacet
facet normal 0.000000 -0.291531 0.956561
outer loop
vertex 0.770967 -0.231508 -0.048453
vertex 1.020967 -0.231508 -0.048453
vertex 1.032020 0.020569 0.028372
endloop
endfacet
facet normal 0.025139 -0.315170 0.948702
outer loop
vertex 0.770967 -0.231508 -0.048453
vertex 1.032020 0.020569 0.028372
vertex 0.777254 0.000248 0.028372
endloop
endfacet
facet normal 0.000000 0.000000 1.000000
outer loop
vertex -0.250000 -0.250000 0.000000
vertex 0.000000 -0.250000 0.000000
vertex 0.000000 0.000000 0.000000
endloop
endfacet
facet normal 0.000000 0.000000 1.000000
outer loop
vertex -0.250000 -0.250000 0.000000
vertex 0.000000 0.000000 0.000000
vertex -0.250000 0.000000 0.000000
endloop
endfacet
facet normal -0.000406 0.019268 0.999814
outer loop
vertex -0.247455 0.773581 -0.036576
vertex 0.002538 0.773515 -0.036473
vertex -0.032193 1.030503 -0.041440
endloop
endfacet
facet normal 0.025412 -0.002366 0.999674
outer loop
vertex -0.247455 0.773581 -0.036576
vertex -0.032193 1.030503 -0.041440
vertex -0.261593 1.024485 -0.035623
endloop
endfacet
facet normal -0.085630 0.000000 0.996327
outer loop
vertex -0.230345 -0.762007 -0.019797
vertex 0.000000 -0.750000 0.000000
vertex 0.000000 -0.500000 0.000000
endloop
endfacet
facet normal 0.000000 -0.075345 0.997158
outer loop
vertex -0.230345 -0.762007 -0.019797
vertex 0.000000 -0.500000 0.000000
vertex -0.250000 -0.500000 0.000000
endloop
endfacet
facet normal 0.047224 0.214230 0.975641
outer loop
vertex 0.820281 -0.772619 0.068560
vertex 1.056976 -0.777312 0.058134
vertex 1.000000 -0.500000 0.000000
endloop
endfacet
facet normal 0.000000 0.243893 0.969802
outer loop
vertex 0.820281 -0.772619 0.068560
vertex 1.000000 -0.500000 0.000000
vertex 0.750000 -0.500000 0.000000
endloop
endfacet
facet normal 0.215460 0.000000 0.976513
outer loop
vertex -0.261617 0.213605 0.057724
vertex 0.000000 0.250000 0.000000
vertex 0.000000 0.500000 0.000000
endloop
endfacet
facet normal 0.067151 0.137829 0.988177
outer loop
vertex -0.261617 0.213605 0.057724
vertex 0.000000 0.500000 0.000000
vertex -0.251306 0.487902 0.018765
endloop
endfacet
facet normal -0.176949 -0.031896 0.983703
outer loop
vertex 0.715198 0.250892 0.041576
vertex 0.967659 0.315095 0.089071
vertex 0.923263 0.669230 0.092567
endloop
endfacet
facet normal 0.331947 -0.275078 0.902299
outer loop
vertex 0.715198 0.250892 0.041576
vertex 0.923263 0.669230 0.092567
vertex 0.672564 0.607311 0.165920
endloop
endfacet
facet normal 0.058938 -0.246864 0.967256
outer loop
vertex 0.215572 0.238894 0.061235
vertex 0.458158 0.246097 0.048292
vertex 0.407119 0.625290 0.148180
endloop
endfacet
facet normal -0.413321 0.000000 0.910585
outer loop
vertex 0.215572 0.238894 0.061235
vertex 0.407119 0.625290 0.148180
vertex 0.215572 0.488894 0.061235
endloop
endfacet
facet normal -0.169887 0.169887 0.970709
outer loop
vertex 0.250000 -0.750000 0.000000
vertex 0.560069 -0.760666 0.056133
vertex 0.500000 -0.500000 0.000000
endloop
endfacet
facet normal 0.000000 0.000000 1.000000
outer loop
vertex 0.250000 -0.750000 0.000000
vertex 0.500000 -0.500000 0.000000
vertex 0.250000 -0.500000 0.000000
endloop
endfacet
facet normal 0.000000 -0.231898 0.972740
outer loop
vertex 0.270967 -0.231508 -0.048453
vertex 0.520967 -0.231508 -0.048453
vertex 0.497558 0.000417 0.006837
endloop
endfacet
facet normal -0.054422 -0.180933 0.981989
outer loop
vertex 0.270967 -0.231508 -0.048453
vertex 0.497558 0.000417 0.006837
vertex 0.226089 -0.004573 -0.009127
endloop
endfacet
facet normal -0.466712 0.163714 0.869125
outer loop
vertex 0.215572 0.738894 0.061235
vertex 0.403811 0.885316 0.134737
vertex 0.420013 1.155374 0.092567
endloop
endfacet
facet normal -0.341214 0.097157 0.934951
outer loop
vertex 0.215572 0.738894 0.061235
vertex 0.420013 1.155374 0.092567
vertex 0.197101 1.013925 0.025914
endloop
endfacet
facet normal -0.053084 -0.049872 0.997344
outer loop
vertex -0.750449 0.245843 0.006448
vertex -0.501342 0.237562 0.019293
vertex -0.502182 0.479781 0.031360
endloop
endfacet
facet normal -0.417919 0.354437 0.836492
outer loop
vertex -0.750449 0.245843 0.006448
vertex -0.502182 0.479781 0.031360
vertex -0.815025 0.364507 -0.076095
endloop
endfacet
facet normal 0.166385 -0.359704 0.918112
outer loop
vertex -0.768999 -0.801817 -0.050222
vertex -0.529767 -0.758231 -0.076501
vertex -0.497264 -0.553601 -0.002220
endloop
endfacet
facet normal -0.097822 -0.084674 0.991595
outer loop
vertex -0.768999 -0.801817 -0.050222
vertex -0.497264 -0.553601 -0.002220
vertex -0.760842 -0.580845 -0.030548
endloop
endfacet
facet normal -0.229598 0.046848 0.972157
outer loop
vertex -0.823740 0.603213 -0.057338
vertex -0.500851 0.742117 0.012226
vertex -0.500000 1.000000 0.000000
endloop
endfacet
facet normal -0.237356 0.053496 0.969949
outer loop
vertex -0.823740 0.603213 -0.057338
vertex -0.500000 1.000000 0.000000
vertex -0.814648 0.862589 -0.069419
endloop
endfacet
facet normal 0.000000 -0.000000 1.000000
outer loop
vertex -0.750000 -0.250000 0.000000
vertex -0.500000 -0.250000 0.000000
vertex -0.477268 -0.020183 0.000000
endloop
endfacet
facet normal 0.160673 -0.190677 0.968414
outer loop
vertex -0.750000 -0.250000 0.000000
vertex -0.477268 -0.020183 0.000000
vertex -0.720500 0.044512 0.053094
endloop
endfacet
facet normal -0.142543 0.144435 0.979194
outer loop
vertex -0.501342 0.237562 0.019293
vertex -0.261617 0.213605 0.057724
vertex -0.251306 0.487902 0.018765
endloop
endfacet
facet normal 0.051680 -0.049513 0.997436
outer loop
vertex -0.501342 0.237562 0.019293
vertex -0.251306 0.487902 0.018765
vertex -0.502182 0.479781 0.031360
endloop
endfacet
facet normal -0.186420 -0.087922 0.978528
outer loop
vertex -0.529767 -0.758231 -0.076501
vertex -0.230345 -0.762007 -0.019797
vertex -0.250000 -0.500000 0.000000
endloop
endfacet
facet normal 0.067459 -0.349889 0.934359
outer loop
vertex -0.529767 -0.758231 -0.076501
vertex -0.250000 -0.500000 0.000000
vertex -0.497264 -0.553601 -0.002220
endloop
endfacet
facet normal 0.188290 0.006879 0.982089
outer loop
vertex -0.500851 0.742117 0.012226
vertex -0.247455 0.773581 -0.036576
vertex -0.261593 1.024485 -0.035623
endloop
endfacet
facet normal 0.142957 0.046400 0.988641
outer loop
vertex -0.500851 0.742117 0.012226
vertex -0.261593 1.024485 -0.035623
vertex -0.500000 1.000000 0.000000
endloop
endfacet
facet normal 0.000000 0.000000 1.000000
outer loop
vertex -0.500000 -0.250000 0.000000
vertex -0.250000 -0.250000 0.000000
vertex -0.250000 0.000000 0.000000
endloop
endfacet
facet normal 0.000000 -0.000000 1.000000
outer loop
vertex -0.500000 -0.250000 0.000000
vertex -0.250000 0.000000 0.000000
vertex -0.477268 -0.020183 0.000000
endloop
endfacet
facet normal -0.403099 0.089891 0.910731
outer loop
vertex 0.002538 0.773515 -0.036473
vertex 0.215572 0.738894 0.061235
vertex 0.197101 1.013925 0.025914
endloop
endfacet
facet normal -0.283093 -0.019727 0.958890
outer loop
vertex 0.002538 0.773515 -0.036473
vertex 0.197101 1.013925 0.025914
vertex -0.032193 1.030503 -0.041440
endloop
endfacet
facet normal 0.183231 -0.132567 0.974091
outer loop
vertex 0.000000 -0.250000 0.000000
vertex 0.270967 -0.231508 -0.048453
vertex 0.226089 -0.004573 -0.009127
endloop
endfacet
facet normal 0.040338 0.000000 0.999186
outer loop
vertex 0.000000 -0.250000 0.000000
vertex 0.226089 -0.004573 -0.009127
vertex 0.000000 0.000000 0.000000
endloop
endfacet
facet normal 0.000000 0.000000 1.000000
outer loop
vertex 0.000000 -0.750000 0.000000
vertex 0.250000 -0.750000 0.000000
vertex 0.250000 -0.500000 0.000000
endloop
endfacet
facet normal 0.000000 0.000000 1.000000
outer loop
vertex 0.000000 -0.750000 0.000000
vertex 0.250000 -0.500000 0.000000
vertex 0.000000 -0.500000 0.000000
endloop
endfacet
facet normal -0.273248 0.000000 0.961944
outer loop
vertex 0.000000 0.250000 0.000000
vertex 0.215572 0.238894 0.061235
vertex 0.215572 0.488894 0.061235
endloop
endfacet
facet normal -0.273248 0.000000 0.961944
outer loop
vertex 0.000000 0.250000 0.000000
vertex 0.215572 0.488894 0.061235
vertex 0.000000 0.500000 0.000000
endloop
endfacet
facet normal 0.030767 -0.325961 0.944883
outer loop
vertex 0.458158 0.246097 0.048292
vertex 0.715198 0.250892 0.041576
vertex 0.672564 0.607311 0.165920
endloop
endfacet
facet normal -0.082119 -0.264193 0.960967
outer loop
vertex 0.458158 0.246097 0.048292
vertex 0.672564 0.607311 0.165920
vertex 0.407119 0.625290 0.148180
endloop
endfacet
facet normal -0.035589 0.235100 0.971320
outer loop
vertex 0.560069 -0.760666 0.056133
vertex 0.820281 -0.772619 0.068560
vertex 0.750000 -0.500000 0.000000
endloop
endfacet
facet normal 0.000000 0.210518 0.977590
outer loop
vertex 0.560069 -0.760666 0.056133
vertex 0.750000 -0.500000 0.000000
vertex 0.500000 -0.500000 0.000000
endloop
endfacet
facet normal 0.000000 -0.314655 0.949206
outer loop
vertex 0.520967 -0.231508 -0.048453
vertex 0.770967 -0.231508 -0.048453
vertex 0.777254 0.000248 0.028372
endloop
endfacet
facet normal -0.074698 -0.238378 0.968295
outer loop
vertex 0.520967 -0.231508 -0.048453
vertex 0.777254 0.000248 0.028372
vertex 0.497558 0.000417 0.006837
endloop
endfacet
facet normal -0.059001 0.228421 0.971773
outer loop
vertex 0.403811 0.885316 0.134737
vertex 0.646333 0.920199 0.141262
vertex 0.671358 1.158513 0.086764
endloop
endfacet
facet normal 0.020899 0.153022 0.988002
outer loop
vertex 0.403811 0.885316 0.134737
vertex 0.671358 1.158513 0.086764
vertex 0.420013 1.155374 0.092567
endloop
endfacet
facet normal 0.000000 -0.177417 0.984136
outer loop
vertex -1.000000 -0.250000 0.000000
vertex -0.750000 -0.250000 0.000000
vertex -0.720500 0.044512 0.053094
endloop
endfacet
facet normal 0.137772 -0.300870 0.943661
outer loop
vertex -1.000000 -0.250000 0.000000
vertex -0.720500 0.044512 0.053094
vertex -0.961752 0.026942 0.082714
endloop
endfacet
facet normal -0.075131 0.049022 0.995968
outer loop
vertex -1.065025 0.614507 -0.076095
vertex -0.823740 0.603213 -0.057338
vertex -0.814648 0.862589 -0.069419
endloop
endfacet
facet normal -0.052498 0.026118 0.998279
outer loop
vertex -1.065025 0.614507 -0.076095
vertex -0.814648 0.862589 -0.069419
vertex -1.064066 0.871171 -0.082760
endloop
endfacet
facet normal -0.220263 -0.078435 0.972282
outer loop
vertex -1.040688 -0.778061 -0.109855
vertex -0.768999 -0.801817 -0.050222
vertex -0.760842 -0.580845 -0.030548
endloop
endfacet
facet normal -0.049368 -0.311548 0.948947
outer loop
vertex -1.040688 -0.778061 -0.109855
vertex -0.760842 -0.580845 -0.030548
vertex -1.021805 -0.577951 -0.043175
endloop
endfacet
facet normal 0.208772 0.632475 0.745915
outer loop
vertex -0.988684 0.275557 0.047932
vertex -0.750449 0.245843 0.006448
vertex -0.815025 0.364507 -0.076095
endloop
endfacet
facet normal 0.233498 0.605256 0.761015
outer loop
vertex -0.988684 0.275557 0.047932
vertex -0.815025 0.364507 -0.076095
vertex -1.052195 0.396393 -0.028686
endloop
endfacet
facet normal 0.186451 -0.070196 0.979953
outer loop
vertex -1.052195 0.396393 -0.028686
vertex -0.815025 0.364507 -0.076095
vertex -0.823740 0.603213 -0.057338
endloop
endfacet
facet normal -0.066115 0.208222 0.975845
outer loop
vertex -1.052195 0.396393 -0.028686
vertex -0.823740 0.603213 -0.057338
vertex -1.065025 0.614507 -0.076095
endloop
endfacet
facet normal -0.061562 0.073286 0.995409
outer loop
vertex 0.407119 0.625290 0.148180
vertex 0.672564 0.607311 0.165920
vertex 0.646333 0.920199 0.141262
endloop
endfacet
facet normal -0.034214 0.051165 0.998104
outer loop
vertex 0.407119 0.625290 0.148180
vertex 0.646333 0.920199 0.141262
vertex 0.403811 0.885316 0.134737
endloop
endfacet
facet normal -0.273248 0.000000 0.961944
outer loop
vertex 0.000000 0.500000 0.000000
vertex 0.215572 0.488894 0.061235
vertex 0.215572 0.738894 0.061235
endloop
endfacet
facet normal -0.396778 0.124946 0.909371
outer loop
vertex 0.000000 0.500000 0.000000
vertex 0.215572 0.738894 0.061235
vertex 0.002538 0.773515 -0.036473
endloop
endfacet
facet normal 0.043117 0.189443 0.980945
outer loop
vertex -0.502182 0.479781 0.031360
vertex -0.251306 0.487902 0.018765
vertex -0.247455 0.773581 -0.036576
endloop
endfacet
facet normal 0.180180 0.070643 0.981094
outer loop
vertex -0.502182 0.479781 0.031360
vertex -0.247455 0.773581 -0.036576
vertex -0.500851 0.742117 0.012226
endloop
endfacet
facet normal -0.347021 0.069974 0.935243
outer loop
vertex -0.815025 0.364507 -0.076095
vertex -0.502182 0.479781 0.031360
vertex -0.500851 0.742117 0.012226
endloop
endfacet
facet normal -0.175424 -0.083486 0.980947
outer loop
vertex -0.815025 0.364507 -0.076095
vertex -0.500851 0.742117 0.012226
vertex -0.823740 0.603213 -0.057338
endloop
endfacet
facet normal -0.436975 0.040894 0.898543
outer loop
vertex 0.215572 0.488894 0.061235
vertex 0.407119 0.625290 0.148180
vertex 0.403811 0.885316 0.134737
endloop
endfacet
facet normal -0.363725 0.000000 0.931506
outer loop
vertex 0.215572 0.488894 0.061235
vertex 0.403811 0.885316 0.134737
vertex 0.215572 0.738894 0.061235
endloop
endfacet
facet normal 0.067531 0.131262 0.989045
outer loop
vertex -0.251306 0.487902 0.018765
vertex 0.000000 0.500000 0.000000
vertex 0.002538 0.773515 -0.036473
endloop
endfacet
facet normal -0.000354 0.190185 0.981748
outer loop
vertex -0.251306 0.487902 0.018765
vertex 0.002538 0.773515 -0.036473
vertex -0.247455 0.773581 -0.036576
endloop
endfacet
facet normal 0.279739 0.004737 0.960065
outer loop
vertex 0.672564 0.607311 0.165920
vertex 0.923263 0.669230 0.092567
vertex 0.907965 0.928493 0.095745
endloop
endfacet
facet normal 0.167865 0.091428 0.981561
outer loop
vertex 0.672564 0.607311 0.165920
vertex 0.907965 0.928493 0.095745
vertex 0.646333 0.920199 0.141262
endloop
endfacet
facet normal 0.101182 0.238810 0.965780
outer loop
vertex -0.961752 0.026942 0.082714
vertex -0.720500 0.044512 0.053094
vertex -0.750449 0.245843 0.006448
endloop
endfacet
facet normal 0.188304 0.156055 0.969633
outer loop
vertex -0.961752 0.026942 0.082714
vertex -0.750449 0.245843 0.006448
vertex -0.988684 0.275557 0.047932
endloop
endfacet
facet normal -0.076615 -0.071360 0.994504
outer loop
vertex 0.497558 0.000417 0.006837
vertex 0.777254 0.000248 0.028372
vertex 0.715198 0.250892 0.041576
endloop
endfacet
facet normal 0.028790 -0.161824 0.986399
outer loop
vertex 0.497558 0.000417 0.006837
vertex 0.715198 0.250892 0.041576
vertex 0.458158 0.246097 0.048292
endloop
endfacet
facet normal 0.033192 -0.276164 0.960537
outer loop
vertex 0.000000 0.000000 0.000000
vertex 0.226089 -0.004573 -0.009127
vertex 0.215572 0.238894 0.061235
endloop
endfacet
facet normal -0.273248 0.000000 0.961944
outer loop
vertex 0.000000 0.000000 0.000000
vertex 0.215572 0.238894 0.061235
vertex 0.000000 0.250000 0.000000
endloop
endfacet
facet normal 0.023058 -0.259640 0.965430
outer loop
vertex -0.477268 -0.020183 0.000000
vertex -0.250000 0.000000 0.000000
vertex -0.261617 0.213605 0.057724
endloop
endfacet
facet normal -0.166332 -0.089044 0.982041
outer loop
vertex -0.477268 -0.020183 0.000000
vertex -0.261617 0.213605 0.057724
vertex -0.501342 0.237562 0.019293
endloop
endfacet
facet normal 0.199048 -0.054648 0.978465
outer loop
vertex -0.720500 0.044512 0.053094
vertex -0.477268 -0.020183 0.000000
vertex -0.501342 0.237562 0.019293
endloop
endfacet
facet normal -0.042963 0.219431 0.974682
outer loop
vertex -0.720500 0.044512 0.053094
vertex -0.501342 0.237562 0.019293
vertex -0.750449 0.245843 0.006448
endloop
endfacet
facet normal -0.054604 -0.174644 0.983116
outer loop
vertex 0.226089 -0.004573 -0.009127
vertex 0.497558 0.000417 0.006837
vertex 0.458158 0.246097 0.048292
endloop
endfacet
facet normal 0.059362 -0.274783 0.959672
outer loop
vertex 0.226089 -0.004573 -0.009127
vertex 0.458158 0.246097 0.048292
vertex 0.215572 0.238894 0.061235
endloop
endfacet
facet normal 0.015833 -0.198502 0.979973
outer loop
vertex 0.777254 0.000248 0.028372
vertex 1.032020 0.020569 0.028372
vertex 0.967659 0.315095 0.089071
endloop
endfacet
facet normal -0.161518 -0.091754 0.982595
outer loop
vertex 0.777254 0.000248 0.028372
vertex 0.967659 0.315095 0.089071
vertex 0.715198 0.250892 0.041576
endloop
endfacet
facet normal 0.000000 0.000000 1.000000
outer loop
vertex -0.250000 0.000000 0.000000
vertex 0.000000 0.000000 0.000000
vertex 0.000000 0.250000 0.000000
endloop
endfacet
facet normal 0.240957 -0.240957 0.940148
outer loop
vertex -0.250000 0.000000 0.000000
vertex 0.000000 0.250000 0.000000
vertex -0.261617 0.213605 0.057724
endloop
endfacet
facet normal -0.049128 -0.090236 0.994708
outer loop
vertex -1.021805 -0.577951 -0.043175
vertex -0.760842 -0.580845 -0.030548
vertex -0.750000 -0.250000 0.000000
endloop
endfacet
facet normal 0.000000 -0.130524 0.991445
outer loop
vertex -1.021805 -0.577951 -0.043175
vertex -0.750000 -0.250000 0.000000
vertex -1.000000 -0.250000 0.000000
endloop
endfacet
facet normal 0.000000 0.177596 0.984103
outer loop
vertex 0.500000 -0.500000 0.000000
vertex 0.750000 -0.500000 0.000000
vertex 0.770967 -0.231508 -0.048453
endloop
endfacet
facet normal 0.000000 0.177596 0.984103
outer loop
vertex 0.500000 -0.500000 0.000000
vertex 0.770967 -0.231508 -0.048453
vertex 0.520967 -0.231508 -0.048453
endloop
endfacet
facet normal 0.000000 0.177596 0.984103
outer loop
vertex 0.000000 -0.500000 0.000000
vertex 0.250000 -0.500000 0.000000
vertex 0.270967 -0.231508 -0.048453
endloop
endfacet
facet normal 0.176024 0.000000 0.984386
outer loop
vertex 0.000000 -0.500000 0.000000
vertex 0.270967 -0.231508 -0.048453
vertex 0.000000 -0.250000 0.000000
endloop
endfacet
facet normal -0.008977 0.000000 0.999960
outer loop
vertex -0.497264 -0.553601 -0.002220
vertex -0.250000 -0.500000 0.000000
vertex -0.250000 -0.250000 0.000000
endloop
endfacet
facet normal 0.000000 -0.007311 0.999973
outer loop
vertex -0.497264 -0.553601 -0.002220
vertex -0.250000 -0.250000 0.000000
vertex -0.500000 -0.250000 0.000000
endloop
endfacet
facet normal -0.106018 -0.008225 0.994330
outer loop
vertex -0.760842 -0.580845 -0.030548
vertex -0.497264 -0.553601 -0.002220
vertex -0.500000 -0.250000 0.000000
endloop
endfacet
facet normal 0.000000 -0.091943 0.995764
outer loop
vertex -0.760842 -0.580845 -0.030548
vertex -0.500000 -0.250000 0.000000
vertex -0.750000 -0.250000 0.000000
endloop
endfacet
facet normal 0.000000 0.177596 0.984103
outer loop
vertex 0.250000 -0.500000 0.000000
vertex 0.500000 -0.500000 0.000000
vertex 0.520967 -0.231508 -0.048453
endloop
endfacet
facet normal 0.000000 0.177596 0.984103
outer loop
vertex 0.250000 -0.500000 0.000000
vertex 0.520967 -0.231508 -0.048453
vertex 0.270967 -0.231508 -0.048453
endloop
endfacet
facet normal 0.000000 0.000000 1.000000
outer loop
vertex -0.250000 -0.500000 0.000000
vertex 0.000000 -0.500000 0.000000
vertex 0.000000 -0.250000 0.000000
endloop
endfacet
facet normal 0.000000 0.000000 1.000000
outer loop
vertex -0.250000 -0.500000 0.000000
vertex 0.000000 -0.250000 0.000000
vertex -0.250000 -0.250000 0.000000
endloop
endfacet
facet normal 0.000000 0.177596 0.984103
outer loop
vertex 0.750000 -0.500000 0.000000
vertex 1.000000 -0.500000 0.000000
vertex 1.020967 -0.231508 -0.048453
endloop
endfacet
facet normal 0.000000 0.177596 0.984103
outer loop
vertex 0.750000 -0.500000 0.000000
vertex 1.020967 -0.231508 -0.048453
vertex 0.770967 -0.231508 -0.048453
endloop
endfacet
facet normal -0.062134 -0.418899 0.905904
outer loop
vertex -1.085031 -1.044149 -0.183955
vertex -0.746282 -1.053446 -0.165020
vertex -0.768999 -0.801817 -0.050222
endloop
endfacet
facet normal -0.227645 -0.225838 0.947193
outer loop
vertex -1.085031 -1.044149 -0.183955
vertex -0.768999 -0.801817 -0.050222
vertex -1.040688 -0.778061 -0.109855
endloop
endfacet
facet normal -0.143448 0.011929 0.989586
outer loop
vertex 0.469772 -1.173303 0.022581
vertex 0.869973 -1.104876 0.079768
vertex 0.820281 -0.772619 0.068560
endloop
endfacet
facet normal -0.050790 -0.069893 0.996261
outer loop
vertex 0.469772 -1.173303 0.022581
vertex 0.820281 -0.772619 0.068560
vertex 0.560069 -0.760666 0.056133
endloop
endfacet
facet normal -0.052709 -0.038043 0.997885
outer loop
vertex -0.047524 -1.051960 -0.027227
vertex 0.195496 -1.110879 -0.016637
vertex 0.250000 -0.750000 0.000000
endloop
endfacet
facet normal 0.000000 -0.089804 0.995960
outer loop
vertex -0.047524 -1.051960 -0.027227
vertex 0.250000 -0.750000 0.000000
vertex 0.000000 -0.750000 0.000000
endloop
endfacet
facet normal -0.197506 -0.232500 0.952331
outer loop
vertex -0.473640 -1.046751 -0.139771
vertex -0.227400 -1.033225 -0.085401
vertex -0.230345 -0.762007 -0.019797
endloop
endfacet
facet normal -0.183399 -0.244478 0.952153
outer loop
vertex -0.473640 -1.046751 -0.139771
vertex -0.230345 -0.762007 -0.019797
vertex -0.529767 -0.758231 -0.076501
endloop
endfacet
facet normal -0.084185 -0.229040 0.969770
outer loop
vertex -0.746282 -1.053446 -0.165020
vertex -0.473640 -1.046751 -0.139771
vertex -0.529767 -0.758231 -0.076501
endloop
endfacet
facet normal 0.171255 -0.396093 0.902099
outer loop
vertex -0.746282 -1.053446 -0.165020
vertex -0.529767 -0.758231 -0.076501
vertex -0.768999 -0.801817 -0.050222
endloop
endfacet
facet normal -0.151875 -0.047042 0.987280
outer loop
vertex 0.195496 -1.110879 -0.016637
vertex 0.469772 -1.173303 0.022581
vertex 0.560069 -0.760666 0.056133
endloop
endfacet
facet normal -0.178720 -0.018359 0.983729
outer loop
vertex 0.195496 -1.110879 -0.016637
vertex 0.560069 -0.760666 0.056133
vertex 0.250000 -0.750000 0.000000
endloop
endfacet
facet normal -0.271775 0.217076 0.937559
outer loop
vertex 0.869973 -1.104876 0.079768
vertex 1.153996 -0.992648 0.136115
vertex 1.056976 -0.777312 0.058134
endloop
endfacet
facet normal 0.044770 0.040368 0.998181
outer loop
vertex 0.869973 -1.104876 0.079768
vertex 1.056976 -0.777312 0.058134
vertex 0.820281 -0.772619 0.068560
endloop
endfacet
facet normal -0.310967 -0.036693 0.949712
outer loop
vertex -0.227400 -1.033225 -0.085401
vertex -0.047524 -1.051960 -0.027227
vertex 0.000000 -0.750000 0.000000
endloop
endfacet
facet normal -0.071048 -0.235240 0.969337
outer loop
vertex -0.227400 -1.033225 -0.085401
vertex 0.000000 -0.750000 0.000000
vertex -0.230345 -0.762007 -0.019797
endloop
endfacet
endsolid Exported from Blender-2.92.0
