solid Exported from Blender-2.92.0
facet normal 0.328628 -0.532521 0.780016
outer loop
vertex 26.558628 31.018911 -2.792509
vertex 33.051826 32.453079 -4.549038
vertex 32.977940 35.705418 -2.297520
endloop
endfacet
facet normal 0.308843 -0.507965 0.804107
outer loop
vertex 26.558628 31.018911 -2.792509
vertex 32.977940 35.705418 -2.297520
vertex 27.924679 34.778454 -0.942233
endloop
endfacet
facet normal -0.102840 0.513524 0.851890
outer loop
vertex 26.918591 -5.674579 1.600394
vertex 35.192993 -5.824815 2.689845
vertex 35.097500 0.753185 -1.286930
endloop
endfacet
facet normal 0.090663 0.309788 0.946473
outer loop
vertex 26.918591 -5.674579 1.600394
vertex 35.097500 0.753185 -1.286930
vertex 25.794697 3.005055 -1.132864
endloop
endfacet
facet normal -0.111468 -0.021625 0.993533
outer loop
vertex -9.046431 -7.993902 -1.712192
vertex 0.289386 -5.870596 -0.618559
vertex -0.156159 -1.587462 -0.575320
endloop
endfacet
facet normal 0.193720 -0.425680 0.883894
outer loop
vertex -9.046431 -7.993902 -1.712192
vertex -0.156159 -1.587462 -0.575320
vertex -8.515059 -2.086325 1.016418
endloop
endfacet
facet normal -0.109038 -0.080717 0.990755
outer loop
vertex -10.167014 35.583538 -1.288414
vertex -2.086732 36.226891 -0.346724
vertex -3.330716 40.370335 -0.146063
endloop
endfacet
facet normal -0.110366 -0.078822 0.990761
outer loop
vertex -10.167014 35.583538 -1.288414
vertex -3.330716 40.370335 -0.146063
vertex -12.108541 41.273487 -1.052014
endloop
endfacet
facet normal -0.341790 -0.037391 0.939032
outer loop
vertex -8.601275 -25.967434 -4.689689
vertex 1.752243 -24.740881 -0.872364
vertex 0.734931 -10.153730 -0.661798
endloop
endfacet
facet normal -0.103524 -0.187671 0.976761
outer loop
vertex -8.601275 -25.967434 -4.689689
vertex 0.734931 -10.153730 -0.661798
vertex -9.950404 -15.194074 -2.762731
endloop
endfacet
facet normal -0.599979 0.142492 0.787224
outer loop
vertex 31.408751 -24.262753 3.981979
vertex 38.088207 -21.407078 8.555804
vertex 36.125343 -12.144383 5.383223
endloop
endfacet
facet normal -0.108993 -0.072216 0.991416
outer loop
vertex 31.408751 -24.262753 3.981979
vertex 36.125343 -12.144383 5.383223
vertex 28.042486 -14.354213 4.333651
endloop
endfacet
facet normal 0.032775 0.012375 0.999386
outer loop
vertex -6.581334 9.358658 -0.500141
vertex 0.744530 11.104547 -0.762014
vertex 1.645219 23.796556 -0.948709
endloop
endfacet
facet normal -0.062965 0.066814 0.995777
outer loop
vertex -6.581334 9.358658 -0.500141
vertex 1.645219 23.796556 -0.948709
vertex -5.341570 20.284643 -1.154857
endloop
endfacet
facet normal 0.303595 0.344601 0.888302
outer loop
vertex 25.660124 11.363832 -4.305428
vertex 35.404625 11.535933 -7.702567
vertex 33.273506 22.696066 -11.303591
endloop
endfacet
facet normal 0.307230 0.342007 0.888055
outer loop
vertex 25.660124 11.363832 -4.305428
vertex 33.273506 22.696066 -11.303591
vertex 25.525553 19.722609 -7.477992
endloop
endfacet
facet normal -0.068831 0.229907 0.970775
outer loop
vertex -26.864445 13.626983 -1.646657
vertex -14.640201 6.958329 0.799409
vertex -12.328361 16.772728 -1.361004
endloop
endfacet
facet normal -0.004532 -0.069642 0.997562
outer loop
vertex -26.864445 13.626983 -1.646657
vertex -12.328361 16.772728 -1.361004
vertex -24.419329 22.375221 -1.024818
endloop
endfacet
facet normal 0.036563 -0.456537 0.888953
outer loop
vertex -32.909035 -23.938673 -6.261243
vertex -18.954796 -27.193985 -8.507013
vertex -20.635740 -20.234417 -4.863663
endloop
endfacet
facet normal -0.010711 -0.321721 0.946774
outer loop
vertex -32.909035 -23.938673 -6.261243
vertex -20.635740 -20.234417 -4.863663
vertex -32.769245 -13.724625 -2.788853
endloop
endfacet
facet normal 0.026518 0.073198 0.996965
outer loop
vertex -25.355286 36.775902 -1.728709
vertex -17.051746 34.850319 -1.808197
vertex -19.193434 42.286354 -2.297190
endloop
endfacet
facet normal 0.113997 -0.025014 0.993166
outer loop
vertex -25.355286 36.775902 -1.728709
vertex -19.193434 42.286354 -2.297190
vertex -25.577106 43.766335 -1.527186
endloop
endfacet
facet normal -0.187294 -0.458595 0.868684
outer loop
vertex -31.039406 -4.422941 -2.528675
vertex -18.382248 -10.117208 -2.805825
vertex -15.433526 -1.148973 2.564443
endloop
endfacet
facet normal -0.288839 -0.103764 0.951738
outer loop
vertex -31.039406 -4.422941 -2.528675
vertex -15.433526 -1.148973 2.564443
vertex -31.275587 3.322292 -1.755920
endloop
endfacet
facet normal 0.161565 0.205286 0.965274
outer loop
vertex 9.471237 11.040744 -2.209094
vertex 18.197943 10.976938 -3.656173
vertex 19.103327 17.687195 -5.234790
endloop
endfacet
facet normal 0.298629 0.001685 0.954368
outer loop
vertex 9.471237 11.040744 -2.209094
vertex 19.103327 17.687195 -5.234790
vertex 9.711411 20.272854 -2.300551
endloop
endfacet
facet normal -0.048995 -0.363745 0.930209
outer loop
vertex 13.240769 -25.929657 -0.732105
vertex 24.729296 -27.118427 -0.591846
vertex 19.959627 -16.564041 3.284080
endloop
endfacet
facet normal -0.264287 -0.213696 0.940471
outer loop
vertex 13.240769 -25.929657 -0.732105
vertex 19.959627 -16.564041 3.284080
vertex 10.347279 -13.358885 1.311141
endloop
endfacet
facet normal -0.090757 0.297569 0.950377
outer loop
vertex 9.933402 -7.060602 -0.648965
vertex 19.288956 -5.679658 -0.187936
vertex 18.618284 5.204725 -3.659952
endloop
endfacet
facet normal 0.026104 0.220856 0.974957
outer loop
vertex 9.933402 -7.060602 -0.648965
vertex 18.618284 5.204725 -3.659952
vertex 9.911808 3.500327 -3.040749
endloop
endfacet
facet normal -0.113087 -0.262950 0.958159
outer loop
vertex 9.185536 32.565670 -1.448946
vertex 19.503122 29.656900 -1.029469
vertex 21.746807 33.995808 0.426078
endloop
endfacet
facet normal -0.164921 0.176228 0.970435
outer loop
vertex 9.185536 32.565670 -1.448946
vertex 21.746807 33.995808 0.426078
vertex 10.228380 36.674934 -2.017948
endloop
endfacet
facet normal 0.146684 0.042576 0.988267
outer loop
vertex -14.640201 6.958329 0.799409
vertex -6.581334 9.358658 -0.500141
vertex -5.341570 20.284643 -1.154857
endloop
endfacet
facet normal -0.152158 0.246529 0.957116
outer loop
vertex -14.640201 6.958329 0.799409
vertex -5.341570 20.284643 -1.154857
vertex -12.328361 16.772728 -1.361004
endloop
endfacet
facet normal -0.317060 -0.205317 0.925915
outer loop
vertex -18.954796 -27.193985 -8.507013
vertex -8.601275 -25.967434 -4.689689
vertex -9.950404 -15.194074 -2.762731
endloop
endfacet
facet normal 0.040168 -0.455787 0.889182
outer loop
vertex -18.954796 -27.193985 -8.507013
vertex -9.950404 -15.194074 -2.762731
vertex -20.635740 -20.234417 -4.863663
endloop
endfacet
facet normal -0.068277 -0.064660 0.995569
outer loop
vertex -17.051746 34.850319 -1.808197
vertex -10.167014 35.583538 -1.288414
vertex -12.108541 41.273487 -1.052014
endloop
endfacet
facet normal -0.170919 0.015557 0.985162
outer loop
vertex -17.051746 34.850319 -1.808197
vertex -12.108541 41.273487 -1.052014
vertex -19.193434 42.286354 -2.297190
endloop
endfacet
facet normal -0.011213 -0.418458 0.908167
outer loop
vertex -18.382248 -10.117208 -2.805825
vertex -9.046431 -7.993902 -1.712192
vertex -8.515059 -2.086325 1.016418
endloop
endfacet
facet normal 0.114061 -0.537729 0.835367
outer loop
vertex -18.382248 -10.117208 -2.805825
vertex -8.515059 -2.086325 1.016418
vertex -15.433526 -1.148973 2.564443
endloop
endfacet
facet normal 0.130050 0.103538 0.986087
outer loop
vertex -2.086732 36.226891 -0.346724
vertex 9.185536 32.565670 -1.448946
vertex 10.228380 36.674934 -2.017948
endloop
endfacet
facet normal 0.134738 -0.007533 0.990853
outer loop
vertex -2.086732 36.226891 -0.346724
vertex 10.228380 36.674934 -2.017948
vertex -3.330716 40.370335 -0.146063
endloop
endfacet
facet normal 0.030323 0.220838 0.974839
outer loop
vertex 0.289386 -5.870596 -0.618559
vertex 9.933402 -7.060602 -0.648965
vertex 9.911808 3.500327 -3.040749
endloop
endfacet
facet normal 0.231045 0.014213 0.972839
outer loop
vertex 0.289386 -5.870596 -0.618559
vertex 9.911808 3.500327 -3.040749
vertex -0.156159 -1.587462 -0.575320
endloop
endfacet
facet normal -0.029305 -0.166933 0.985533
outer loop
vertex 1.752243 -24.740881 -0.872364
vertex 13.240769 -25.929657 -0.732105
vertex 10.347279 -13.358885 1.311141
endloop
endfacet
facet normal -0.210170 -0.028764 0.977242
outer loop
vertex 1.752243 -24.740881 -0.872364
vertex 10.347279 -13.358885 1.311141
vertex 0.734931 -10.153730 -0.661798
endloop
endfacet
facet normal 0.163625 0.005516 0.986507
outer loop
vertex 0.744530 11.104547 -0.762014
vertex 9.471237 11.040744 -2.209094
vertex 9.711411 20.272854 -2.300551
endloop
endfacet
facet normal 0.166432 0.002694 0.986049
outer loop
vertex 0.744530 11.104547 -0.762014
vertex 9.711411 20.272854 -2.300551
vertex 1.645219 23.796556 -0.948709
endloop
endfacet
facet normal -0.098771 0.289779 0.951983
outer loop
vertex 0.734931 -10.153730 -0.661798
vertex 10.347279 -13.358885 1.311141
vertex 9.933402 -7.060602 -0.648965
endloop
endfacet
facet normal 0.001932 -0.009894 0.999949
outer loop
vertex 0.734931 -10.153730 -0.661798
vertex 9.933402 -7.060602 -0.648965
vertex 0.289386 -5.870596 -0.618559
endloop
endfacet
facet normal -0.133519 -0.126649 0.982920
outer loop
vertex -20.635740 -20.234417 -4.863663
vertex -9.950404 -15.194074 -2.762731
vertex -9.046431 -7.993902 -1.712192
endloop
endfacet
facet normal -0.073200 -0.183102 0.980365
outer loop
vertex -20.635740 -20.234417 -4.863663
vertex -9.046431 -7.993902 -1.712192
vertex -18.382248 -10.117208 -2.805825
endloop
endfacet
facet normal -0.095913 0.297133 0.950007
outer loop
vertex 10.347279 -13.358885 1.311141
vertex 19.959627 -16.564041 3.284080
vertex 19.288956 -5.679658 -0.187936
endloop
endfacet
facet normal -0.089834 0.290567 0.952628
outer loop
vertex 10.347279 -13.358885 1.311141
vertex 19.288956 -5.679658 -0.187936
vertex 9.933402 -7.060602 -0.648965
endloop
endfacet
facet normal 0.053946 -0.210553 0.976093
outer loop
vertex -32.769245 -13.724625 -2.788853
vertex -20.635740 -20.234417 -4.863663
vertex -18.382248 -10.117208 -2.805825
endloop
endfacet
facet normal 0.008590 -0.029555 0.999526
outer loop
vertex -32.769245 -13.724625 -2.788853
vertex -18.382248 -10.117208 -2.805825
vertex -31.039406 -4.422941 -2.528675
endloop
endfacet
facet normal -0.179825 -0.028632 0.983282
outer loop
vertex -9.950404 -15.194074 -2.762731
vertex 0.734931 -10.153730 -0.661798
vertex 0.289386 -5.870596 -0.618559
endloop
endfacet
facet normal -0.085338 -0.133350 0.987388
outer loop
vertex -9.950404 -15.194074 -2.762731
vertex 0.289386 -5.870596 -0.618559
vertex -9.046431 -7.993902 -1.712192
endloop
endfacet
facet normal -0.215365 0.355811 0.909404
outer loop
vertex 28.042486 -14.354213 4.333651
vertex 36.125343 -12.144383 5.383223
vertex 35.192993 -5.824815 2.689845
endloop
endfacet
facet normal -0.120093 0.284009 0.951271
outer loop
vertex 28.042486 -14.354213 4.333651
vertex 35.192993 -5.824815 2.689845
vertex 26.918591 -5.674579 1.600394
endloop
endfacet
facet normal 0.132450 -0.129245 0.982727
outer loop
vertex 2.769556 -39.328033 -1.082929
vertex 16.134260 -38.500427 -2.775350
vertex 13.240769 -25.929657 -0.732105
endloop
endfacet
facet normal -0.013799 -0.015394 0.999786
outer loop
vertex 2.769556 -39.328033 -1.082929
vertex 13.240769 -25.929657 -0.732105
vertex 1.752243 -24.740881 -0.872364
endloop
endfacet
facet normal -0.425433 -0.210698 0.880121
outer loop
vertex -17.670822 -34.517056 -11.120475
vertex -7.252147 -36.740791 -6.616647
vertex -8.601275 -25.967434 -4.689689
endloop
endfacet
facet normal -0.283446 -0.366031 0.886386
outer loop
vertex -17.670822 -34.517056 -11.120475
vertex -8.601275 -25.967434 -4.689689
vertex -18.954796 -27.193985 -8.507013
endloop
endfacet
facet normal 0.137793 -0.285970 0.948280
outer loop
vertex 16.134260 -38.500427 -2.775350
vertex 29.498964 -37.672817 -4.467772
vertex 24.729296 -27.118427 -0.591846
endloop
endfacet
facet normal -0.029305 -0.166933 0.985533
outer loop
vertex 16.134260 -38.500427 -2.775350
vertex 24.729296 -27.118427 -0.591846
vertex 13.240769 -25.929657 -0.732105
endloop
endfacet
facet normal 0.077409 -0.323042 0.943213
outer loop
vertex -33.048820 -34.152721 -9.733633
vertex -17.670822 -34.517056 -11.120475
vertex -18.954796 -27.193985 -8.507013
endloop
endfacet
facet normal 0.076787 -0.321862 0.943668
outer loop
vertex -33.048820 -34.152721 -9.733633
vertex -18.954796 -27.193985 -8.507013
vertex -32.909035 -23.938673 -6.261243
endloop
endfacet
facet normal -0.839455 0.008220 0.543367
outer loop
vertex 34.775017 -34.171295 3.630307
vertex 40.051071 -30.669771 11.728386
vertex 38.088207 -21.407078 8.555804
endloop
endfacet
facet normal -0.494725 -0.198107 0.846168
outer loop
vertex 34.775017 -34.171295 3.630307
vertex 38.088207 -21.407078 8.555804
vertex 31.408751 -24.262753 3.981979
endloop
endfacet
facet normal -0.492093 -0.046867 0.869280
outer loop
vertex -7.252147 -36.740791 -6.616647
vertex 2.769556 -39.328033 -1.082929
vertex 1.752243 -24.740881 -0.872364
endloop
endfacet
facet normal -0.317060 -0.205317 0.925915
outer loop
vertex -7.252147 -36.740791 -6.616647
vertex 1.752243 -24.740881 -0.872364
vertex -8.601275 -25.967434 -4.689689
endloop
endfacet
facet normal 0.279173 -0.089139 0.956095
outer loop
vertex -0.156159 -1.587462 -0.575320
vertex 9.911808 3.500327 -3.040749
vertex 9.471237 11.040744 -2.209094
endloop
endfacet
facet normal 0.163608 0.002901 0.986521
outer loop
vertex -0.156159 -1.587462 -0.575320
vertex 9.471237 11.040744 -2.209094
vertex 0.744530 11.104547 -0.762014
endloop
endfacet
facet normal 0.229036 0.089740 0.969273
outer loop
vertex -15.433526 -1.148973 2.564443
vertex -8.515059 -2.086325 1.016418
vertex -6.581334 9.358658 -0.500141
endloop
endfacet
facet normal 0.096770 0.202678 0.974452
outer loop
vertex -15.433526 -1.148973 2.564443
vertex -6.581334 9.358658 -0.500141
vertex -14.640201 6.958329 0.799409
endloop
endfacet
facet normal 0.070073 0.004450 0.997532
outer loop
vertex 9.911808 3.500327 -3.040749
vertex 18.618284 5.204725 -3.659952
vertex 18.197943 10.976938 -3.656173
endloop
endfacet
facet normal 0.162084 -0.098817 0.981817
outer loop
vertex 9.911808 3.500327 -3.040749
vertex 18.197943 10.976938 -3.656173
vertex 9.471237 11.040744 -2.209094
endloop
endfacet
facet normal -0.196127 0.226880 0.953970
outer loop
vertex -31.275587 3.322292 -1.755920
vertex -15.433526 -1.148973 2.564443
vertex -14.640201 6.958329 0.799409
endloop
endfacet
facet normal -0.164334 0.059907 0.984584
outer loop
vertex -31.275587 3.322292 -1.755920
vertex -14.640201 6.958329 0.799409
vertex -26.864445 13.626983 -1.646657
endloop
endfacet
facet normal 0.136058 0.503707 0.853093
outer loop
vertex 25.794697 3.005055 -1.132864
vertex 35.097500 0.753185 -1.286930
vertex 35.404625 11.535933 -7.702567
endloop
endfacet
facet normal 0.303903 0.342339 0.889071
outer loop
vertex 25.794697 3.005055 -1.132864
vertex 35.404625 11.535933 -7.702567
vertex 25.660124 11.363832 -4.305428
endloop
endfacet
facet normal 0.186995 0.001180 0.982360
outer loop
vertex -8.515059 -2.086325 1.016418
vertex -0.156159 -1.587462 -0.575320
vertex 0.744530 11.104547 -0.762014
endloop
endfacet
facet normal 0.004305 0.130644 0.991420
outer loop
vertex -8.515059 -2.086325 1.016418
vertex 0.744530 11.104547 -0.762014
vertex -6.581334 9.358658 -0.500141
endloop
endfacet
facet normal 0.136064 -0.067719 0.988383
outer loop
vertex 1.645219 23.796556 -0.948709
vertex 9.711411 20.272854 -2.300551
vertex 8.208344 28.700720 -1.516201
endloop
endfacet
facet normal 0.099664 -0.018257 0.994854
outer loop
vertex 1.645219 23.796556 -0.948709
vertex 8.208344 28.700720 -1.516201
vertex -0.842748 32.083447 -0.547386
endloop
endfacet
facet normal -0.015626 -0.027584 0.999497
outer loop
vertex -12.328361 16.772728 -1.361004
vertex -5.341570 20.284643 -1.154857
vertex -7.876404 29.748865 -0.933295
endloop
endfacet
facet normal -0.049504 -0.015932 0.998647
outer loop
vertex -12.328361 16.772728 -1.361004
vertex -7.876404 29.748865 -0.933295
vertex -14.910061 27.414284 -1.319205
endloop
endfacet
facet normal 0.213430 -0.285147 0.934419
outer loop
vertex 9.711411 20.272854 -2.300551
vertex 19.103327 17.687195 -5.234790
vertex 17.259438 25.317993 -2.485017
endloop
endfacet
facet normal 0.076945 -0.078777 0.993918
outer loop
vertex 9.711411 20.272854 -2.300551
vertex 17.259438 25.317993 -2.485017
vertex 8.208344 28.700720 -1.516201
endloop
endfacet
facet normal 0.029263 0.003173 0.999567
outer loop
vertex -24.419329 22.375221 -1.024818
vertex -12.328361 16.772728 -1.361004
vertex -14.910061 27.414284 -1.319205
endloop
endfacet
facet normal -0.018157 0.092424 0.995554
outer loop
vertex -24.419329 22.375221 -1.024818
vertex -14.910061 27.414284 -1.319205
vertex -25.402126 29.654583 -1.718538
endloop
endfacet
facet normal -0.004480 -0.049713 0.998753
outer loop
vertex -5.341570 20.284643 -1.154857
vertex 1.645219 23.796556 -0.948709
vertex -0.842748 32.083447 -0.547386
endloop
endfacet
facet normal -0.043184 -0.034940 0.998456
outer loop
vertex -5.341570 20.284643 -1.154857
vertex -0.842748 32.083447 -0.547386
vertex -7.876404 29.748865 -0.933295
endloop
endfacet
facet normal 0.529367 -0.474736 0.703133
outer loop
vertex 25.525553 19.722609 -7.477992
vertex 33.273506 22.696066 -11.303591
vertex 33.125721 29.200741 -6.800556
endloop
endfacet
facet normal 0.320917 -0.321018 0.891044
outer loop
vertex 25.525553 19.722609 -7.477992
vertex 33.125721 29.200741 -6.800556
vertex 25.192579 27.259367 -4.642786
endloop
endfacet
facet normal 0.076119 0.104774 0.991579
outer loop
vertex -30.464811 25.176468 -0.856725
vertex -24.419329 22.375221 -1.024818
vertex -25.402126 29.654583 -1.718538
endloop
endfacet
facet normal -0.075833 0.270435 0.959747
outer loop
vertex -30.464811 25.176468 -0.856725
vertex -25.402126 29.654583 -1.718538
vertex -31.172335 32.133724 -2.873028
endloop
endfacet
facet normal -0.251550 0.097471 0.962924
outer loop
vertex -38.280979 6.128247 -3.870007
vertex -31.275587 3.322292 -1.755920
vertex -26.864445 13.626983 -1.646657
endloop
endfacet
facet normal -0.179327 -0.018620 0.983613
outer loop
vertex -38.280979 6.128247 -3.870007
vertex -26.864445 13.626983 -1.646657
vertex -33.508907 16.406593 -2.805423
endloop
endfacet
facet normal 0.143439 -0.320302 0.936393
outer loop
vertex -40.936302 -34.152306 -8.525268
vertex -33.048820 -34.152721 -9.733633
vertex -32.909035 -23.938673 -6.261243
endloop
endfacet
facet normal 0.088205 -0.281149 0.955602
outer loop
vertex -40.936302 -34.152306 -8.525268
vertex -32.909035 -23.938673 -6.261243
vertex -39.886154 -22.311018 -5.138358
endloop
endfacet
facet normal 0.140231 -0.053733 0.988660
outer loop
vertex -38.835999 -10.469728 -1.751448
vertex -32.769245 -13.724625 -2.788853
vertex -31.039406 -4.422941 -2.528675
endloop
endfacet
facet normal 0.050290 0.063272 0.996729
outer loop
vertex -38.835999 -10.469728 -1.751448
vertex -31.039406 -4.422941 -2.528675
vertex -37.367985 -1.575807 -2.390100
endloop
endfacet
facet normal -0.023186 -0.099952 0.994722
outer loop
vertex -37.367985 -1.575807 -2.390100
vertex -31.039406 -4.422941 -2.528675
vertex -31.275587 3.322292 -1.755920
endloop
endfacet
facet normal -0.226853 0.157733 0.961071
outer loop
vertex -37.367985 -1.575807 -2.390100
vertex -31.275587 3.322292 -1.755920
vertex -38.280979 6.128247 -3.870007
endloop
endfacet
facet normal -0.427843 -0.039608 0.902985
outer loop
vertex -31.259716 37.170391 -4.508982
vertex -25.355286 36.775902 -1.728709
vertex -25.577106 43.766335 -1.527186
endloop
endfacet
facet normal -0.743339 0.397049 0.538330
outer loop
vertex -31.259716 37.170391 -4.508982
vertex -25.577106 43.766335 -1.527186
vertex -29.501286 42.540462 -6.041631
endloop
endfacet
facet normal 0.076787 -0.321862 0.943668
outer loop
vertex -39.886154 -22.311018 -5.138358
vertex -32.909035 -23.938673 -6.261243
vertex -32.769245 -13.724625 -2.788853
endloop
endfacet
facet normal 0.016091 -0.276281 0.960942
outer loop
vertex -39.886154 -22.311018 -5.138358
vertex -32.769245 -13.724625 -2.788853
vertex -38.835999 -10.469728 -1.751448
endloop
endfacet
facet normal -0.179750 -0.019670 0.983516
outer loop
vertex -33.508907 16.406593 -2.805423
vertex -26.864445 13.626983 -1.646657
vertex -24.419329 22.375221 -1.024818
endloop
endfacet
facet normal -0.063361 -0.195469 0.978661
outer loop
vertex -33.508907 16.406593 -2.805423
vertex -24.419329 22.375221 -1.024818
vertex -30.464811 25.176468 -0.856725
endloop
endfacet
facet normal 0.399136 -0.307333 0.863850
outer loop
vertex 19.103327 17.687195 -5.234790
vertex 25.525553 19.722609 -7.477992
vertex 25.192579 27.259367 -4.642786
endloop
endfacet
facet normal 0.311345 -0.254682 0.915533
outer loop
vertex 19.103327 17.687195 -5.234790
vertex 25.192579 27.259367 -4.642786
vertex 17.259438 25.317993 -2.485017
endloop
endfacet
facet normal -0.216564 0.343379 0.913888
outer loop
vertex 18.618284 5.204725 -3.659952
vertex 25.794697 3.005055 -1.132864
vertex 25.660124 11.363832 -4.305428
endloop
endfacet
facet normal 0.086387 0.005639 0.996246
outer loop
vertex 18.618284 5.204725 -3.659952
vertex 25.660124 11.363832 -4.305428
vertex 18.197943 10.976938 -3.656173
endloop
endfacet
facet normal -0.746748 -0.275186 0.605508
outer loop
vertex 29.498964 -37.672817 -4.467772
vertex 34.775017 -34.171295 3.630307
vertex 31.408751 -24.262753 3.981979
endloop
endfacet
facet normal -0.359078 -0.460408 0.811842
outer loop
vertex 29.498964 -37.672817 -4.467772
vertex 31.408751 -24.262753 3.981979
vertex 24.729296 -27.118427 -0.591846
endloop
endfacet
facet normal -0.196513 0.271267 0.942230
outer loop
vertex 19.959627 -16.564041 3.284080
vertex 28.042486 -14.354213 4.333651
vertex 26.918591 -5.674579 1.600394
endloop
endfacet
facet normal -0.218973 0.284256 0.933407
outer loop
vertex 19.959627 -16.564041 3.284080
vertex 26.918591 -5.674579 1.600394
vertex 19.288956 -5.679658 -0.187936
endloop
endfacet
facet normal 0.062747 0.355033 0.932746
outer loop
vertex 18.197943 10.976938 -3.656173
vertex 25.660124 11.363832 -4.305428
vertex 25.525553 19.722609 -7.477992
endloop
endfacet
facet normal 0.271069 0.185622 0.944492
outer loop
vertex 18.197943 10.976938 -3.656173
vertex 25.525553 19.722609 -7.477992
vertex 19.103327 17.687195 -5.234790
endloop
endfacet
facet normal -0.494725 -0.198107 0.846168
outer loop
vertex 24.729296 -27.118427 -0.591846
vertex 31.408751 -24.262753 3.981979
vertex 28.042486 -14.354213 4.333651
endloop
endfacet
facet normal -0.024503 -0.354359 0.934788
outer loop
vertex 24.729296 -27.118427 -0.591846
vertex 28.042486 -14.354213 4.333651
vertex 19.959627 -16.564041 3.284080
endloop
endfacet
facet normal -0.220094 0.266957 0.938239
outer loop
vertex 19.288956 -5.679658 -0.187936
vertex 26.918591 -5.674579 1.600394
vertex 25.794697 3.005055 -1.132864
endloop
endfacet
facet normal -0.240817 0.281460 0.928864
outer loop
vertex 19.288956 -5.679658 -0.187936
vertex 25.794697 3.005055 -1.132864
vertex 18.618284 5.204725 -3.659952
endloop
endfacet
facet normal 0.299799 -0.506738 0.808293
outer loop
vertex 19.503122 29.656900 -1.029469
vertex 26.558628 31.018911 -2.792509
vertex 27.924679 34.778454 -0.942233
endloop
endfacet
facet normal 0.246654 -0.420455 0.873143
outer loop
vertex 19.503122 29.656900 -1.029469
vertex 27.924679 34.778454 -0.942233
vertex 21.746807 33.995808 0.426078
endloop
endfacet
facet normal -0.225221 -0.136193 0.964742
outer loop
vertex -40.153370 19.186203 -3.964188
vertex -33.508907 16.406593 -2.805423
vertex -30.464811 25.176468 -0.856725
endloop
endfacet
facet normal -0.126307 -0.288127 0.949226
outer loop
vertex -40.153370 19.186203 -3.964188
vertex -30.464811 25.176468 -0.856725
vertex -37.596325 27.189693 -1.194571
endloop
endfacet
facet normal 0.088205 -0.281149 0.955602
outer loop
vertex -46.863270 -20.683361 -4.015473
vertex -39.886154 -22.311018 -5.138358
vertex -38.835999 -10.469728 -1.751448
endloop
endfacet
facet normal 0.035507 -0.242796 0.969427
outer loop
vertex -46.863270 -20.683361 -4.015473
vertex -38.835999 -10.469728 -1.751448
vertex -44.902756 -7.214833 -0.714043
endloop
endfacet
facet normal -0.281487 0.347454 0.894450
outer loop
vertex -36.183380 38.032951 -6.393547
vertex -31.259716 37.170391 -4.508982
vertex -29.501286 42.540462 -6.041631
endloop
endfacet
facet normal -0.406212 0.544915 0.733525
outer loop
vertex -36.183380 38.032951 -6.393547
vertex -29.501286 42.540462 -6.041631
vertex -35.206116 43.189400 -9.682928
endloop
endfacet
facet normal 0.111375 0.200185 0.973407
outer loop
vertex -43.696564 1.271327 -2.251524
vertex -37.367985 -1.575807 -2.390100
vertex -38.280979 6.128247 -3.870007
endloop
endfacet
facet normal -0.104996 0.417799 0.902452
outer loop
vertex -43.696564 1.271327 -2.251524
vertex -38.280979 6.128247 -3.870007
vertex -45.286366 8.934202 -5.984094
endloop
endfacet
facet normal 0.188864 0.039285 0.981217
outer loop
vertex -44.902756 -7.214833 -0.714043
vertex -38.835999 -10.469728 -1.751448
vertex -37.367985 -1.575807 -2.390100
endloop
endfacet
facet normal 0.095419 0.164312 0.981782
outer loop
vertex -44.902756 -7.214833 -0.714043
vertex -37.367985 -1.575807 -2.390100
vertex -43.696564 1.271327 -2.251524
endloop
endfacet
facet normal 0.145185 -0.283965 0.947779
outer loop
vertex -48.823788 -34.151890 -7.316902
vertex -40.936302 -34.152306 -8.525268
vertex -39.886154 -22.311018 -5.138358
endloop
endfacet
facet normal 0.096670 -0.250210 0.963353
outer loop
vertex -48.823788 -34.151890 -7.316902
vertex -39.886154 -22.311018 -5.138358
vertex -46.863270 -20.683361 -4.015473
endloop
endfacet
facet normal -0.277907 0.029580 0.960152
outer loop
vertex -45.286366 8.934202 -5.984094
vertex -38.280979 6.128247 -3.870007
vertex -33.508907 16.406593 -2.805423
endloop
endfacet
facet normal -0.206898 -0.088384 0.974362
outer loop
vertex -45.286366 8.934202 -5.984094
vertex -33.508907 16.406593 -2.805423
vertex -40.153370 19.186203 -3.964188
endloop
endfacet
facet normal 0.034004 0.281387 0.958992
outer loop
vertex -37.596325 27.189693 -1.194571
vertex -30.464811 25.176468 -0.856725
vertex -31.172335 32.133724 -2.873028
endloop
endfacet
facet normal 0.019050 0.299130 0.954022
outer loop
vertex -37.596325 27.189693 -1.194571
vertex -31.172335 32.133724 -2.873028
vertex -36.829967 32.678593 -2.930897
endloop
endfacet
facet normal 0.020050 0.309174 0.950794
outer loop
vertex -36.829967 32.678593 -2.930897
vertex -31.172335 32.133724 -2.873028
vertex -31.259716 37.170391 -4.508982
endloop
endfacet
facet normal -0.213330 0.548572 0.808430
outer loop
vertex -36.829967 32.678593 -2.930897
vertex -31.259716 37.170391 -4.508982
vertex -36.183380 38.032951 -6.393547
endloop
endfacet
facet normal 0.339856 -0.511807 0.789019
outer loop
vertex 17.259438 25.317993 -2.485017
vertex 25.192579 27.259367 -4.642786
vertex 26.558628 31.018911 -2.792509
endloop
endfacet
facet normal 0.296614 -0.438058 0.848602
outer loop
vertex 17.259438 25.317993 -2.485017
vertex 26.558628 31.018911 -2.792509
vertex 19.503122 29.656900 -1.029469
endloop
endfacet
facet normal -0.195080 0.002684 0.980784
outer loop
vertex -31.172335 32.133724 -2.873028
vertex -25.402126 29.654583 -1.718538
vertex -25.355286 36.775902 -1.728709
endloop
endfacet
facet normal -0.394000 0.277743 0.876141
outer loop
vertex -31.172335 32.133724 -2.873028
vertex -25.355286 36.775902 -1.728709
vertex -31.259716 37.170391 -4.508982
endloop
endfacet
facet normal 0.091395 -0.040422 0.994994
outer loop
vertex -0.842748 32.083447 -0.547386
vertex 8.208344 28.700720 -1.516201
vertex 9.185536 32.565670 -1.448946
endloop
endfacet
facet normal 0.090525 -0.021041 0.995672
outer loop
vertex -0.842748 32.083447 -0.547386
vertex 9.185536 32.565670 -1.448946
vertex -2.086732 36.226891 -0.346724
endloop
endfacet
facet normal -0.066228 0.034693 0.997201
outer loop
vertex -14.910061 27.414284 -1.319205
vertex -7.876404 29.748865 -0.933295
vertex -10.167014 35.583538 -1.288414
endloop
endfacet
facet normal -0.079719 0.042531 0.995910
outer loop
vertex -14.910061 27.414284 -1.319205
vertex -10.167014 35.583538 -1.288414
vertex -17.051746 34.850319 -1.808197
endloop
endfacet
facet normal -0.014602 -0.311216 0.950227
outer loop
vertex 8.208344 28.700720 -1.516201
vertex 17.259438 25.317993 -2.485017
vertex 19.503122 29.656900 -1.029469
endloop
endfacet
facet normal -0.042491 -0.006642 0.999075
outer loop
vertex 8.208344 28.700720 -1.516201
vertex 19.503122 29.656900 -1.029469
vertex 9.185536 32.565670 -1.448946
endloop
endfacet
facet normal -0.025541 0.058270 0.997974
outer loop
vertex -25.402126 29.654583 -1.718538
vertex -14.910061 27.414284 -1.319205
vertex -17.051746 34.850319 -1.808197
endloop
endfacet
facet normal 0.009888 0.001363 0.999950
outer loop
vertex -25.402126 29.654583 -1.718538
vertex -17.051746 34.850319 -1.808197
vertex -25.355286 36.775902 -1.728709
endloop
endfacet
facet normal -0.035194 -0.058881 0.997644
outer loop
vertex -7.876404 29.748865 -0.933295
vertex -0.842748 32.083447 -0.547386
vertex -2.086732 36.226891 -0.346724
endloop
endfacet
facet normal -0.116889 0.014551 0.993038
outer loop
vertex -7.876404 29.748865 -0.933295
vertex -2.086732 36.226891 -0.346724
vertex -10.167014 35.583538 -1.288414
endloop
endfacet
facet normal 0.340885 -0.529853 0.776565
outer loop
vertex 25.192579 27.259367 -4.642786
vertex 33.125721 29.200741 -6.800556
vertex 33.051826 32.453079 -4.549038
endloop
endfacet
facet normal 0.327797 -0.510381 0.795022
outer loop
vertex 25.192579 27.259367 -4.642786
vertex 33.051826 32.453079 -4.549038
vertex 26.558628 31.018911 -2.792509
endloop
endfacet
endsolid Exported from Blender-2.92.0
